<?xml version="1.0" encoding="utf-8"?>
<!-- Generator: Adobe Illustrator 16.0.0, SVG Export Plug-In . SVG Version: 6.00 Build 0)  -->
<!DOCTYPE svg PUBLIC "-//W3C//DTD SVG 1.1//EN" "http://www.w3.org/Graphics/SVG/1.1/DTD/svg11.dtd">
<svg version="1.1" xmlns="http://www.w3.org/2000/svg" xmlns:xlink="http://www.w3.org/1999/xlink" x="0px" y="0px" width="520px"
	 height="520px" viewBox="0 0 520 520" enable-background="new 0 0 520 520" xml:space="preserve">
<g id="sun">
	<g>
		<path fill="#F9D163" d="M23.214,347.828c3.665-1.574,7.431-3.108,11.35-4.741c1.952-0.807,3.922-1.621,5.909-2.442
			c2.031-0.796,4.081-1.599,6.148-2.407c4.094-1.692,8.458-3.093,12.851-4.604c1.101-0.375,2.205-0.751,3.313-1.129
			c1.129-0.328,2.262-0.658,3.399-0.99c2.28-0.657,4.577-1.32,6.89-1.987c1.161-0.315,2.313-0.705,3.496-0.963
			c1.182-0.269,2.367-0.537,3.556-0.807c2.385-0.529,4.785-1.063,7.199-1.599c1.21-0.249,2.419-0.579,3.642-0.762
			c1.223-0.202,2.449-0.404,3.679-0.606c2.462-0.404,4.939-0.811,7.43-1.22c1.247-0.203,2.497-0.407,3.751-0.611
			c1.261-0.182,2.547-0.292,3.825-0.44c2.565-0.258,5.145-0.517,7.736-0.777c2.579-0.244,5.235-0.546,7.792-0.74
			c2.486-0.129,4.984-0.259,7.492-0.389s5.026-0.261,7.555-0.392c1.264-0.064,2.53-0.128,3.8-0.192l0.237-0.01l0.57-0.004
			l0.492,0.001l0.984,0.002l1.974,0.004c5.271,0.016,10.58,0.03,15.921,0.045c5.367,0.205,10.787,0.543,16.23,0.819
			c2.717,0.102,5.456,0.498,8.198,0.797c2.742,0.318,5.491,0.637,8.246,0.956c2.759,0.252,5.507,0.835,8.268,1.283
			c2.76,0.479,5.524,0.96,8.294,1.44c2.752,0.568,5.492,1.226,8.238,1.867c2.736,0.673,5.518,1.251,8.191,2.083
			c2.697,0.78,5.397,1.561,8.1,2.342c2.709,0.776,5.286,1.702,7.938,2.548c5.338,1.708,10.352,3.528,15.497,5.325
			c4.958,1.759,9.996,3.646,14.84,5.229c2.439,0.799,4.891,1.706,7.315,2.417c2.425,0.724,4.849,1.446,7.271,2.168
			c2.414,0.784,4.857,1.291,7.283,1.918c2.428,0.607,4.839,1.273,7.271,1.837c2.451,0.486,4.898,0.972,7.342,1.457
			c2.451,0.46,4.862,1.056,7.354,1.335c2.476,0.349,4.945,0.696,7.409,1.043c2.463,0.338,4.935,0.75,7.365,0.924
			c4.896,0.442,9.688,0.961,14.615,1.368c5.164,0.225,10.296,0.447,15.391,0.669c1.164,0.053,2.326,0.105,3.484,0.158
			c1.229,0.008,2.455,0.017,3.68,0.024c2.449,0.017,4.89,0.033,7.32,0.05c2.433,0.018,4.855,0.036,7.268,0.054
			c2.4-0.045,4.771-0.191,7.143-0.28c2.371-0.098,4.731-0.195,7.08-0.292c1.173-0.049,2.354-0.059,3.514-0.139
			c1.156-0.104,2.309-0.207,3.459-0.31c2.304-0.204,4.594-0.408,6.872-0.609c1.142-0.101,2.278-0.201,3.413-0.301
			c1.139-0.08,2.24-0.305,3.357-0.449c2.229-0.324,4.445-0.647,6.646-0.968c1.104-0.153,2.205-0.306,3.303-0.457
			c1.102-0.134,2.17-0.399,3.253-0.591c17.303-3.051,33.458-8.143,49.093-12.683c3.863-1.146,7.789-2.159,11.572-3.18
			c2.158-0.613,4.332-1.136,6.487-1.628c7.98-24.665,12.31-50.972,12.31-78.293C514.117,119.655,400.345,5.882,260,5.882
			C119.655,5.882,5.882,119.655,5.882,260c0,31.109,5.601,60.908,15.831,88.456C22.216,348.243,22.708,348.043,23.214,347.828z"/>
	</g>
</g>
<g id="boat">
	<path fill="#656B5F" d="M356.243,364.258c-40.479,5.664-179.275-23.082-179.275-23.082C333.438,321.176,368.732,260,368.732,260
		S382.851,325.896,356.243,364.258"/>
	<path fill="none" stroke="#000000" stroke-miterlimit="10" d="M415.177,337.647"/>
	<path fill="#656B5F" d="M409.294,337.647"/>
	<path fill="#434C3F" d="M368.732,260c20.946,60.299,62.354,65.528,62.354,65.528c-10.843,22.318-74.843,38.73-74.843,38.73
		C382.851,325.896,368.732,260,368.732,260"/>
	<path fill="#9E7F46" d="M299.5,65.909c36.265,165.909-43.147,246.589-43.147,246.589c152.941-99.998,158.824-46.589,158.824-46.589
		C405.854,142.046,299.5,65.909,299.5,65.909"/>
</g>
<g id="waves">
	<path fill="#6698D0" d="M591.646,333.647c0,0-2.684-0.24-7.717-0.69c-2.516-0.2-5.619-0.447-9.268-0.738
		c-0.912-0.067-1.857-0.139-2.837-0.211c-0.987-0.024-2.009-0.049-3.062-0.074c-2.116-0.037-4.364-0.077-6.74-0.118
		c-2.388-0.035-4.903-0.072-7.541-0.11c-2.629,0.083-5.376,0.229-8.252,0.351c-2.873,0.151-5.882,0.203-8.982,0.496
		c-3.104,0.339-6.319,0.689-9.642,1.053c-1.661,0.205-3.372,0.312-5.065,0.643c-1.704,0.294-3.434,0.592-5.189,0.895
		c-1.759,0.305-3.543,0.613-5.353,0.927c-1.815,0.306-3.603,0.772-5.445,1.16c-3.665,0.821-7.476,1.624-11.233,2.692
		c-3.783,1.021-7.709,2.034-11.572,3.18c-15.635,4.54-31.79,9.632-49.093,12.683c-1.083,0.191-2.151,0.457-3.253,0.591
		c-1.098,0.151-2.198,0.304-3.303,0.457c-2.201,0.32-4.417,0.644-6.646,0.968c-1.117,0.145-2.219,0.369-3.357,0.449
		c-1.135,0.1-2.271,0.2-3.413,0.301c-2.278,0.201-4.568,0.405-6.872,0.609c-1.15,0.103-2.303,0.206-3.459,0.31
		c-1.16,0.08-2.341,0.09-3.514,0.139c-2.349,0.097-4.709,0.194-7.08,0.292c-2.372,0.089-4.742,0.235-7.143,0.28
		c-2.412-0.018-4.835-0.036-7.268-0.054c-2.431-0.017-4.871-0.033-7.32-0.05c-1.225-0.008-2.451-0.017-3.68-0.024
		c-1.158-0.053-2.32-0.105-3.484-0.158c-5.095-0.222-10.227-0.444-15.391-0.669c-4.927-0.407-9.719-0.926-14.615-1.368
		c-2.431-0.174-4.902-0.586-7.365-0.924c-2.464-0.347-4.934-0.694-7.409-1.043c-2.492-0.279-4.903-0.875-7.354-1.335
		c-2.443-0.485-4.891-0.971-7.342-1.457c-2.433-0.563-4.844-1.229-7.271-1.837c-2.426-0.627-4.869-1.134-7.283-1.918
		c-2.422-0.722-4.846-1.444-7.271-2.168c-2.425-0.711-4.876-1.618-7.315-2.417c-4.844-1.583-9.882-3.471-14.84-5.229
		c-5.145-1.797-10.159-3.617-15.497-5.325c-2.652-0.846-5.229-1.771-7.938-2.548c-2.702-0.781-5.402-1.562-8.1-2.342
		c-2.674-0.832-5.455-1.41-8.191-2.083c-2.746-0.642-5.486-1.299-8.238-1.867c-2.77-0.48-5.534-0.961-8.294-1.44
		c-2.761-0.448-5.509-1.031-8.268-1.283c-2.755-0.319-5.504-0.638-8.246-0.956c-2.742-0.299-5.481-0.695-8.198-0.797
		c-5.443-0.276-10.863-0.614-16.23-0.819c-5.341-0.015-10.65-0.029-15.921-0.045l-1.974-0.004l-0.984-0.002l-0.492-0.001
		l-0.57,0.004l-0.237,0.01c-1.27,0.064-2.536,0.128-3.8,0.192c-2.528,0.131-5.047,0.262-7.555,0.392s-5.006,0.26-7.492,0.389
		c-2.557,0.194-5.213,0.496-7.792,0.74c-2.592,0.261-5.171,0.52-7.736,0.777c-1.278,0.148-2.564,0.259-3.825,0.44
		c-1.254,0.204-2.504,0.408-3.751,0.611c-2.49,0.409-4.968,0.815-7.43,1.22c-1.229,0.202-2.456,0.404-3.679,0.606
		c-1.223,0.183-2.432,0.513-3.642,0.762c-2.414,0.536-4.814,1.069-7.199,1.599c-1.188,0.27-2.374,0.538-3.556,0.807
		c-1.184,0.258-2.335,0.647-3.496,0.963c-2.313,0.667-4.609,1.33-6.89,1.987c-1.138,0.332-2.271,0.662-3.399,0.99
		c-1.108,0.378-2.213,0.754-3.313,1.129c-4.393,1.512-8.757,2.912-12.851,4.604c-2.067,0.809-4.117,1.611-6.148,2.407
		c-1.987,0.821-3.957,1.636-5.909,2.442c-3.919,1.633-7.685,3.167-11.35,4.741c-7.349,3.111-14.325,5.908-21.052,8.317
		c-1.68,0.604-3.324,1.287-4.979,1.804c-1.655,0.526-3.289,1.046-4.899,1.559c-3.227,1.016-6.354,2.087-9.454,2.846
		c-3.095,0.828-6.091,1.629-8.981,2.403c-1.444,0.421-2.902,0.634-4.313,0.957c-1.417,0.306-2.807,0.605-4.168,0.899
		c-2.729,0.581-5.349,1.17-7.866,1.679c-2.535,0.417-4.953,0.814-7.248,1.191c-2.304,0.384-4.483,0.747-6.535,1.089
		c-1.028,0.178-2.024,0.35-2.987,0.516c-0.969,0.12-1.903,0.236-2.805,0.349c-3.616,0.458-6.692,0.848-9.186,1.164
		c-5.009,0.683-7.681,1.047-7.681,1.047s2.683,0.242,7.713,0.696c2.52,0.214,5.633,0.474,9.303,0.742
		c0.918,0.068,1.87,0.139,2.855,0.212c0.986,0.024,2.007,0.049,3.06,0.075c2.111,0.038,4.354,0.079,6.725,0.122
		c2.379,0.036,4.885,0.074,7.513,0.114c2.626-0.081,5.375-0.226,8.251-0.346c2.873-0.147,5.883-0.203,8.983-0.494
		c3.104-0.337,6.32-0.687,9.644-1.048c3.35-0.277,6.739-0.938,10.256-1.536c1.76-0.304,3.545-0.612,5.354-0.925
		c1.815-0.305,3.604-0.771,5.446-1.157c3.667-0.819,7.475-1.63,11.235-2.693c3.783-1.019,7.711-2.03,11.574-3.174
		c15.636-4.54,31.79-9.633,49.09-12.678c1.082-0.191,2.151-0.457,3.253-0.591c1.097-0.154,2.196-0.309,3.3-0.464
		c2.201-0.32,4.417-0.643,6.646-0.967c1.118-0.144,2.219-0.367,3.358-0.448c1.134-0.1,2.271-0.199,3.411-0.299
		c2.278-0.202,4.568-0.404,6.872-0.608c1.149-0.103,2.302-0.205,3.458-0.309c1.153-0.08,2.304-0.086,3.458-0.134
		c2.305-0.098,4.621-0.195,6.948-0.294c2.341-0.087,4.623-0.232,7.036-0.28c2.49,0.016,4.991,0.031,7.502,0.047
		c2.512,0.016,5.034,0.031,7.565,0.047c1.266,0.006,2.534,0.013,3.805,0.019c1.123,0.053,2.248,0.105,3.375,0.159
		c4.925,0.217,9.885,0.437,14.875,0.657c4.947,0.401,9.893,0.924,14.872,1.376c2.507,0.152,4.946,0.58,7.416,0.914
		c2.464,0.347,4.934,0.694,7.408,1.043c2.492,0.28,4.904,0.875,7.354,1.336c2.443,0.484,4.891,0.97,7.341,1.456
		c2.434,0.558,4.841,1.242,7.273,1.826c2.427,0.619,4.869,1.131,7.284,1.913c2.421,0.722,4.845,1.444,7.271,2.168
		c2.425,0.711,4.875,1.618,7.314,2.417c4.846,1.58,9.879,3.479,14.843,5.222c5.151,1.779,10.16,3.612,15.499,5.316
		c2.652,0.846,5.23,1.771,7.938,2.548c2.703,0.781,5.402,1.563,8.1,2.343c2.675,0.83,5.454,1.415,8.191,2.079
		c2.752,0.619,5.488,1.292,8.242,1.856c2.768,0.481,5.532,0.961,8.292,1.44c2.761,0.449,5.509,1.033,8.267,1.285
		c2.754,0.319,5.504,0.639,8.246,0.957c2.748,0.292,5.455,0.708,8.249,0.788c5.526,0.285,11.099,0.626,16.485,0.828
		c5.168,0.011,10.306,0.021,15.406,0.032l1.91,0.005l2.238-0.01c1.311-0.066,2.619-0.132,3.926-0.197
		c2.609-0.132,5.21-0.264,7.799-0.395c20.688-1.07,40.908-3.86,59.533-8.916c2.313-0.667,4.609-1.328,6.889-1.985
		c1.138-0.331,2.271-0.661,3.399-0.989c1.108-0.377,2.213-0.753,3.313-1.128c4.394-1.504,8.754-2.916,12.848-4.605
		c2.067-0.809,4.117-1.61,6.148-2.405c1.988-0.821,3.958-1.635,5.91-2.44c3.92-1.627,7.683-3.171,11.349-4.743
		c7.351-3.109,14.329-5.899,21.056-8.314c1.681-0.602,3.325-1.285,4.98-1.801c1.656-0.526,3.29-1.045,4.9-1.557
		c3.229-1.012,6.354-2.089,9.455-2.845c3.096-0.827,6.093-1.627,8.984-2.399c1.443-0.422,2.903-0.63,4.314-0.958
		c1.416-0.305,2.807-0.604,4.168-0.896c2.729-0.579,5.352-1.168,7.865-1.675c2.525-0.415,4.934-0.812,7.22-1.187
		c2.298-0.383,4.474-0.745,6.521-1.086c1.027-0.177,2.021-0.349,2.984-0.515c0.975-0.12,1.916-0.236,2.823-0.348
		c3.63-0.456,6.718-0.845,9.222-1.159C588.977,334.01,591.646,333.647,591.646,333.647z"/>
	<path fill="#6698D0" d="M591.646,393.647c0,0-2.684-0.24-7.717-0.69c-2.516-0.2-5.619-0.447-9.268-0.738
		c-0.912-0.067-1.857-0.139-2.837-0.211c-0.987-0.024-2.009-0.049-3.062-0.074c-2.116-0.037-4.364-0.077-6.74-0.118
		c-2.388-0.035-4.903-0.072-7.541-0.11c-2.629,0.083-5.376,0.229-8.252,0.351c-2.873,0.151-5.882,0.203-8.982,0.496
		c-3.104,0.339-6.319,0.689-9.642,1.053c-1.661,0.205-3.372,0.312-5.065,0.643c-1.704,0.294-3.434,0.592-5.189,0.895
		c-1.759,0.305-3.543,0.613-5.353,0.927c-1.815,0.306-3.603,0.772-5.445,1.16c-3.665,0.821-7.476,1.624-11.233,2.692
		c-3.783,1.021-7.709,2.034-11.572,3.18c-15.635,4.54-31.79,9.632-49.093,12.683c-1.083,0.191-2.151,0.457-3.253,0.591
		c-1.098,0.151-2.198,0.304-3.303,0.457c-2.201,0.32-4.417,0.644-6.646,0.968c-1.117,0.145-2.219,0.369-3.357,0.449
		c-1.135,0.1-2.271,0.2-3.413,0.301c-2.278,0.201-4.568,0.405-6.872,0.609c-1.15,0.103-2.303,0.206-3.459,0.31
		c-1.16,0.08-2.341,0.09-3.514,0.139c-2.349,0.097-4.709,0.194-7.08,0.292c-2.372,0.089-4.742,0.235-7.143,0.28
		c-2.412-0.018-4.835-0.036-7.268-0.054c-2.431-0.017-4.871-0.033-7.32-0.05c-1.225-0.008-2.451-0.017-3.68-0.024
		c-1.158-0.053-2.32-0.105-3.484-0.158c-5.095-0.222-10.227-0.444-15.391-0.669c-4.927-0.407-9.719-0.926-14.615-1.368
		c-2.431-0.174-4.902-0.586-7.365-0.924c-2.464-0.347-4.934-0.694-7.409-1.043c-2.492-0.279-4.903-0.875-7.354-1.335
		c-2.443-0.485-4.891-0.971-7.342-1.457c-2.433-0.563-4.844-1.229-7.271-1.837c-2.426-0.627-4.869-1.134-7.283-1.918
		c-2.422-0.722-4.846-1.444-7.271-2.168c-2.425-0.711-4.876-1.618-7.315-2.417c-4.844-1.583-9.882-3.471-14.84-5.229
		c-5.145-1.797-10.159-3.617-15.497-5.325c-2.652-0.846-5.229-1.771-7.938-2.548c-2.702-0.781-5.402-1.562-8.1-2.342
		c-2.674-0.832-5.455-1.41-8.191-2.083c-2.746-0.642-5.486-1.299-8.238-1.867c-2.77-0.48-5.534-0.961-8.294-1.44
		c-2.761-0.448-5.509-1.031-8.268-1.283c-2.755-0.319-5.504-0.638-8.246-0.956c-2.742-0.299-5.481-0.695-8.198-0.797
		c-5.443-0.276-10.863-0.614-16.23-0.819c-5.341-0.015-10.65-0.029-15.921-0.045l-1.974-0.004l-0.984-0.002l-0.492-0.001
		l-0.57,0.004l-0.237,0.01c-1.27,0.064-2.536,0.128-3.8,0.192c-2.528,0.131-5.047,0.262-7.555,0.392s-5.006,0.26-7.492,0.389
		c-2.557,0.194-5.213,0.496-7.792,0.74c-2.592,0.261-5.171,0.52-7.736,0.777c-1.278,0.148-2.564,0.259-3.825,0.44
		c-1.254,0.204-2.504,0.408-3.751,0.611c-2.49,0.409-4.968,0.815-7.43,1.22c-1.229,0.202-2.456,0.404-3.679,0.606
		c-1.223,0.183-2.432,0.513-3.642,0.762c-2.414,0.536-4.814,1.069-7.199,1.599c-1.188,0.27-2.374,0.538-3.556,0.807
		c-1.184,0.258-2.335,0.647-3.496,0.963c-2.313,0.667-4.609,1.33-6.89,1.987c-1.138,0.332-2.271,0.662-3.399,0.99
		c-1.108,0.378-2.213,0.754-3.313,1.129c-4.393,1.512-8.757,2.912-12.851,4.604c-2.067,0.809-4.117,1.611-6.148,2.407
		c-1.987,0.821-3.957,1.636-5.909,2.442c-3.919,1.633-7.685,3.167-11.35,4.741c-7.349,3.111-14.325,5.908-21.052,8.317
		c-1.68,0.604-3.324,1.287-4.979,1.804c-1.655,0.526-3.289,1.046-4.899,1.559c-3.227,1.016-6.354,2.087-9.454,2.846
		c-3.095,0.828-6.091,1.629-8.981,2.403c-1.444,0.421-2.902,0.634-4.313,0.957c-1.417,0.306-2.807,0.605-4.168,0.899
		c-2.729,0.581-5.349,1.17-7.866,1.679c-2.535,0.417-4.953,0.814-7.248,1.191c-2.304,0.384-4.483,0.747-6.535,1.089
		c-1.028,0.178-2.024,0.35-2.987,0.516c-0.969,0.12-1.903,0.236-2.805,0.349c-3.616,0.458-6.692,0.848-9.186,1.164
		c-5.009,0.683-7.681,1.047-7.681,1.047s2.683,0.242,7.713,0.696c2.52,0.214,5.633,0.474,9.303,0.742
		c0.918,0.068,1.87,0.139,2.855,0.212c0.986,0.024,2.007,0.049,3.06,0.075c2.111,0.038,4.354,0.079,6.725,0.122
		c2.379,0.036,4.885,0.074,7.513,0.114c2.626-0.081,5.375-0.226,8.251-0.346c2.873-0.147,5.883-0.203,8.983-0.494
		c3.104-0.337,6.32-0.687,9.644-1.048c3.35-0.277,6.739-0.938,10.256-1.536c1.76-0.304,3.545-0.612,5.354-0.925
		c1.815-0.305,3.604-0.771,5.446-1.157c3.667-0.819,7.475-1.63,11.235-2.693c3.783-1.019,7.711-2.03,11.574-3.174
		c15.636-4.54,31.79-9.633,49.09-12.678c1.082-0.191,2.151-0.457,3.253-0.591c1.097-0.154,2.196-0.309,3.3-0.464
		c2.201-0.32,4.417-0.643,6.646-0.967c1.118-0.144,2.219-0.367,3.358-0.448c1.134-0.1,2.271-0.199,3.411-0.299
		c2.278-0.202,4.568-0.404,6.872-0.608c1.149-0.103,2.302-0.205,3.458-0.309c1.153-0.08,2.304-0.086,3.458-0.134
		c2.305-0.098,4.621-0.195,6.948-0.294c2.341-0.087,4.623-0.232,7.036-0.28c2.49,0.016,4.991,0.031,7.502,0.047
		c2.512,0.016,5.034,0.031,7.565,0.047c1.266,0.006,2.534,0.013,3.805,0.019c1.123,0.053,2.248,0.105,3.375,0.159
		c4.925,0.217,9.885,0.437,14.875,0.657c4.947,0.401,9.893,0.924,14.872,1.376c2.507,0.152,4.946,0.58,7.416,0.914
		c2.464,0.347,4.934,0.694,7.408,1.043c2.492,0.28,4.904,0.875,7.354,1.336c2.443,0.484,4.891,0.97,7.341,1.456
		c2.434,0.558,4.841,1.242,7.273,1.826c2.427,0.619,4.869,1.131,7.284,1.913c2.421,0.722,4.845,1.444,7.271,2.168
		c2.425,0.711,4.875,1.618,7.314,2.417c4.846,1.58,9.879,3.479,14.843,5.222c5.151,1.779,10.16,3.612,15.499,5.316
		c2.652,0.846,5.23,1.771,7.938,2.548c2.703,0.781,5.402,1.563,8.1,2.343c2.675,0.83,5.454,1.415,8.191,2.079
		c2.752,0.619,5.488,1.292,8.242,1.856c2.768,0.481,5.532,0.961,8.292,1.44c2.761,0.449,5.509,1.033,8.267,1.285
		c2.754,0.319,5.504,0.639,8.246,0.957c2.748,0.292,5.455,0.708,8.249,0.788c5.526,0.285,11.099,0.626,16.485,0.828
		c5.168,0.011,10.306,0.021,15.406,0.032l1.91,0.005l2.238-0.01c1.311-0.066,2.619-0.132,3.926-0.197
		c2.609-0.132,5.21-0.264,7.799-0.395c20.688-1.07,40.908-3.86,59.533-8.916c2.313-0.667,4.609-1.328,6.889-1.985
		c1.138-0.331,2.271-0.661,3.399-0.989c1.108-0.377,2.213-0.753,3.313-1.128c4.394-1.504,8.754-2.916,12.848-4.605
		c2.067-0.809,4.117-1.61,6.148-2.405c1.988-0.821,3.958-1.635,5.91-2.44c3.92-1.627,7.683-3.171,11.349-4.743
		c7.351-3.109,14.329-5.899,21.056-8.314c1.681-0.602,3.325-1.285,4.98-1.801c1.656-0.526,3.29-1.045,4.9-1.557
		c3.229-1.012,6.354-2.089,9.455-2.845c3.096-0.827,6.093-1.627,8.984-2.399c1.443-0.422,2.903-0.63,4.314-0.958
		c1.416-0.305,2.807-0.604,4.168-0.896c2.729-0.579,5.352-1.168,7.865-1.675c2.525-0.415,4.934-0.812,7.22-1.187
		c2.298-0.383,4.474-0.745,6.521-1.086c1.027-0.177,2.021-0.349,2.984-0.515c0.975-0.12,1.916-0.236,2.823-0.348
		c3.63-0.456,6.718-0.845,9.222-1.159C588.977,394.01,591.646,393.647,591.646,393.647z"/>
</g>
</svg>
